<svg width="114" height="41" viewBox="0 0 114 41" fill="none" xmlns="http://www.w3.org/2000/svg">
<path fill-rule="evenodd" clip-rule="evenodd" d="M0 40.6982V3.95677H4.19003V0H109.614V3.95677H113.804V36.7414H109.614V40.6982H83.8101V36.7414H80.2895V40.6982H0ZM59.0074 32.2194V36.1762H75.7675V32.2194H79.9575V16.3923H67.3874V24.3059H71.5775V28.2627H63.1974V12.4356H79.9575V4.52202H59.0074V8.4788H54.8174V32.2194H59.0074ZM42.2577 4.52202V36.1762H50.6378V4.52202H42.2577ZM33.8522 8.4788V4.52202H8.71205V8.4788H4.52202V36.1762H12.9021V12.4356H17.0921V36.1762H25.4722V12.4356H29.6622V36.1762H38.0422V8.4788H33.8522ZM84.1421 8.4788V32.2194H88.3321V36.1762H105.092V32.2194H109.282V8.4788H105.092V4.52202H88.3321V8.4788H84.1421ZM92.5221 28.2627H100.902V12.4356H92.5221V28.2627Z" fill="#18171F"/>
</svg>
