<svg width="151" height="221" viewBox="0 0 151 221" fill="none" xmlns="http://www.w3.org/2000/svg">
<path d="M22.6785 215H33.7975V183.5H39.357V215H50.4759V178.25H44.9165V173H11.5595V178.25H6V215H17.119V183.5H22.6785V215Z" fill="#F3F3F3"/>
<path d="M56.0692 215H67.1882V173H56.0692V215Z" fill="#F3F3F3"/>
<path d="M72.7338 209.75H78.2933V215H100.531V209.75H106.091V188.75H89.4123V199.25H94.9718V204.5H83.8528V183.5H106.091V173H78.2933V178.25H72.7338V209.75Z" fill="#F3F3F3"/>
<path d="M111.643 209.75H117.203V215H139.44V209.75H145V178.25H139.44V173H117.203V178.25H111.643V209.75ZM122.762 183.5H133.881V204.5H122.762V183.5Z" fill="#F3F3F3"/>
<path fill-rule="evenodd" clip-rule="evenodd" d="M0 221V172.25H5.55949V167H145.44V172.25H151V215.75H145.44V221H111.203V215.75H106.531V221H0ZM78.2933 209.75V215H100.531V209.75H106.091V188.75H89.4123V199.25H94.9718V204.5H83.8528V183.5H106.091V173H78.2933V178.25H72.7338V209.75H78.2933ZM56.0692 173V215H67.1882V173H56.0692ZM44.9165 178.25V173H11.5595V178.25H6V215H17.119V183.5H22.6785V215H33.7975V183.5H39.357V215H50.4759V178.25H44.9165ZM111.643 178.25V209.75H117.203V215H139.44V209.75H145V178.25H139.44V173H117.203V178.25H111.643ZM122.762 204.5H133.881V183.5H122.762V204.5Z" fill="#0D0C11"/>
<path fill-rule="evenodd" clip-rule="evenodd" d="M130 0H0V151H151V21H130V0Z" fill="#E7E247"/>
<path d="M45 102V64H106V102H90.2473V94.9381H61.4231V102H45Z" fill="#F3F3F3"/>
<path fill-rule="evenodd" clip-rule="evenodd" d="M105.5 64H45.5V101.5H60.5V94H90.5V101.5H105.5V64ZM113 56.5V64V101.5V109H83V101.5H68V109H38V101.5V64V56.5H45.5H71.75V49V41.5H90.5V34H98V41.5V49H79.25V56.5H105.5H113ZM83 71.5V79V86.5H98V79V71.5H83ZM53 71.5H68V79V86.5H53V79V71.5Z" fill="#0D0C11"/>
</svg>
