<svg width="24" height="25" viewBox="0 0 24 25" fill="none" xmlns="http://www.w3.org/2000/svg">
<path fill-rule="evenodd" clip-rule="evenodd" d="M20.6622 0.714996H0V24.715H24V4.05277H20.6622V0.714996Z" fill="#E7E247"/>
<path d="M7.15234 16.9269V10.8872H16.8477V16.9269H14.344V15.8045H9.76263V16.9269H7.15234Z" fill="#F9F9F9"/>
<path fill-rule="evenodd" clip-rule="evenodd" d="M16.7682 10.8872H7.23179V16.8475H9.61589V15.6554H14.3841V16.8475H16.7682V10.8872ZM17.9603 9.69515V10.8872V16.8475V18.0395H13.1921V16.8475H10.8079V18.0395H6.03973V16.8475V10.8872V9.69515H7.23179H11.404V8.50309V7.31104H14.3841V6.11899H15.5762V7.31104V8.50309H12.596V9.69515H16.7682H17.9603ZM13.1921 12.0793V13.2713V14.4634H15.5762V13.2713V12.0793H13.1921ZM8.42384 12.0793H10.8079V13.2713V14.4634H8.42384V13.2713V12.0793Z" fill="#18171F"/>
</svg>
